<svg width="58" height="57" viewBox="0 0 58 57" fill="none" xmlns="http://www.w3.org/2000/svg">
<mask id="path-1-inside-1_7262_65617" fill="white">
<path fill-rule="evenodd" clip-rule="evenodd" d="M28.6606 56.279C44.4894 56.279 57.3212 43.6805 57.3212 28.1395C57.3212 12.5985 44.4894 0 28.6606 0C12.8318 0 0 12.5985 0 28.1395C0 43.6805 12.8318 56.279 28.6606 56.279Z"/>
</mask>
<path fill-rule="evenodd" clip-rule="evenodd" d="M28.6606 56.279C44.4894 56.279 57.3212 43.6805 57.3212 28.1395C57.3212 12.5985 44.4894 0 28.6606 0C12.8318 0 0 12.5985 0 28.1395C0 43.6805 12.8318 56.279 28.6606 56.279Z" fill="#131415"/>
<path d="M53.1524 28.1395C53.1524 41.3064 42.2595 52.1102 28.6606 52.1102V60.4478C46.7193 60.4478 61.49 46.0547 61.49 28.1395H53.1524ZM28.6606 4.16882C42.2595 4.16882 53.1524 14.9726 53.1524 28.1395H61.49C61.49 10.2243 46.7193 -4.16882 28.6606 -4.16882V4.16882ZM4.16882 28.1395C4.16882 14.9726 15.0617 4.16882 28.6606 4.16882V-4.16882C10.6019 -4.16882 -4.16882 10.2243 -4.16882 28.1395H4.16882ZM28.6606 52.1102C15.0617 52.1102 4.16882 41.3064 4.16882 28.1395H-4.16882C-4.16882 46.0547 10.6019 60.4478 28.6606 60.4478V52.1102Z" fill="#353F51" mask="url(#path-1-inside-1_7262_65617)"/>
</svg>
