<svg width="55" height="54" viewBox="0 0 55 54" fill="none" xmlns="http://www.w3.org/2000/svg">
<mask id="path-1-inside-1_6377_115265" fill="white">
<path fill-rule="evenodd" clip-rule="evenodd" d="M27.5 54C42.6878 54 55 41.9117 55 27C55 12.0883 42.6878 0 27.5 0C12.3122 0 0 12.0883 0 27C0 41.9117 12.3122 54 27.5 54Z"/>
</mask>
<path fill-rule="evenodd" clip-rule="evenodd" d="M27.5 54C42.6878 54 55 41.9117 55 27C55 12.0883 42.6878 0 27.5 0C12.3122 0 0 12.0883 0 27C0 41.9117 12.3122 54 27.5 54Z" fill="#131415"/>
<path d="M51 27C51 39.6337 40.5482 50 27.5 50V58C44.8275 58 59 44.1897 59 27H51ZM27.5 4C40.5482 4 51 14.3663 51 27H59C59 9.8103 44.8275 -4 27.5 -4V4ZM4 27C4 14.3663 14.4518 4 27.5 4V-4C10.1725 -4 -4 9.8103 -4 27H4ZM27.5 50C14.4518 50 4 39.6337 4 27H-4C-4 44.1897 10.1725 58 27.5 58V50Z" fill="#353F51" mask="url(#path-1-inside-1_6377_115265)"/>
</svg>
