<svg width="314" height="52" viewBox="0 0 314 52" fill="none" xmlns="http://www.w3.org/2000/svg">
<g filter="url(#filter0_di_7262_66158)">
<path d="M617.974 0.602442L4.40015 0.602496L20.5468 0.865909L26.4183 0.865908L27.8861 0.865908L30.8219 0.865908L36.6934 1.03054L39.6292 1.12932L45.5007 1.39274L51.3723 1.65615L60.1795 2.18298L71.9225 3.17078L80.7298 4.02687L93.2067 5.60736L95.4086 5.87077L96.8765 6.13419L98.3443 6.3976L101.28 6.92443L104.216 7.58297L108.619 8.50491L114.032 9.67382L117.794 10.6781L132.839 14.6951L162.931 22.7293L193.756 30.8951L212.839 35.6366L226.05 38.2707L237.793 39.8512L251.004 41.1683L264.215 42.2219L278.893 43.0122L293.572 43.539L308.251 43.8024L617.974 43.8024C765.582 26.1593 780.392 16.6253 617.974 0.602442Z" fill="#0F1717"/>
</g>
<defs>
<filter id="filter0_di_7262_66158" x="0.400146" y="0.602448" width="737.9" height="51.2" filterUnits="userSpaceOnUse" color-interpolation-filters="sRGB">
<feFlood flood-opacity="0" result="BackgroundImageFix"/>
<feColorMatrix in="SourceAlpha" type="matrix" values="0 0 0 0 0 0 0 0 0 0 0 0 0 0 0 0 0 0 127 0" result="hardAlpha"/>
<feOffset dy="4"/>
<feGaussianBlur stdDeviation="2"/>
<feComposite in2="hardAlpha" operator="out"/>
<feColorMatrix type="matrix" values="0 0 0 0 0 0 0 0 0 0 0 0 0 0 0 0 0 0 0.25 0"/>
<feBlend mode="normal" in2="BackgroundImageFix" result="effect1_dropShadow_7262_66158"/>
<feBlend mode="normal" in="SourceGraphic" in2="effect1_dropShadow_7262_66158" result="shape"/>
<feColorMatrix in="SourceAlpha" type="matrix" values="0 0 0 0 0 0 0 0 0 0 0 0 0 0 0 0 0 0 127 0" result="hardAlpha"/>
<feOffset dy="2"/>
<feGaussianBlur stdDeviation="15.5"/>
<feComposite in2="hardAlpha" operator="arithmetic" k2="-1" k3="1"/>
<feColorMatrix type="matrix" values="0 0 0 0 0 0 0 0 0 0 0 0 0 0 0 0 0 0 1 0"/>
<feBlend mode="normal" in2="shape" result="effect2_innerShadow_7262_66158"/>
</filter>
</defs>
</svg>
