<svg width="353" height="44" viewBox="0 0 353 44" fill="none" xmlns="http://www.w3.org/2000/svg">
<g filter="url(#filter0_di_7262_54786)">
<path d="M399.252 43.2611L4.25275 43.2611L14.6474 42.9822L18.4273 42.9822L19.3723 42.9822L21.2622 42.9822L25.0421 42.8078L26.9321 42.7032L30.712 42.4243L34.4919 42.1453L40.1617 41.5874L47.7215 40.5413L53.3913 39.6347L61.4236 37.9609L62.8411 37.6819L63.786 37.403L64.731 37.124L66.621 36.5661L68.5109 35.8687L71.3458 34.8923L74.8304 33.6544L77.2519 32.5909L86.9379 28.3367L106.31 19.8284L126.154 11.1806L138.439 6.1593L146.944 3.36969L154.504 1.69592L163.008 0.301114L171.513 -0.814732L180.963 -1.65162L190.413 -2.20954L199.862 -2.4885L399.252 -2.48852C494.278 16.1958 503.812 26.2925 399.252 43.2611Z" fill="#0F1717"/>
</g>
<defs>
<filter id="filter0_di_7262_54786" x="0.252747" y="-2.48853" width="477.886" height="53.7497" filterUnits="userSpaceOnUse" color-interpolation-filters="sRGB">
<feFlood flood-opacity="0" result="BackgroundImageFix"/>
<feColorMatrix in="SourceAlpha" type="matrix" values="0 0 0 0 0 0 0 0 0 0 0 0 0 0 0 0 0 0 127 0" result="hardAlpha"/>
<feOffset dy="4"/>
<feGaussianBlur stdDeviation="2"/>
<feComposite in2="hardAlpha" operator="out"/>
<feColorMatrix type="matrix" values="0 0 0 0 0 0 0 0 0 0 0 0 0 0 0 0 0 0 0.25 0"/>
<feBlend mode="normal" in2="BackgroundImageFix" result="effect1_dropShadow_7262_54786"/>
<feBlend mode="normal" in="SourceGraphic" in2="effect1_dropShadow_7262_54786" result="shape"/>
<feColorMatrix in="SourceAlpha" type="matrix" values="0 0 0 0 0 0 0 0 0 0 0 0 0 0 0 0 0 0 127 0" result="hardAlpha"/>
<feOffset dy="2"/>
<feGaussianBlur stdDeviation="15.5"/>
<feComposite in2="hardAlpha" operator="arithmetic" k2="-1" k3="1"/>
<feColorMatrix type="matrix" values="0 0 0 0 0 0 0 0 0 0 0 0 0 0 0 0 0 0 1 0"/>
<feBlend mode="normal" in2="shape" result="effect2_innerShadow_7262_54786"/>
</filter>
</defs>
</svg>
