<svg width="279" height="52" viewBox="0 0 279 52" fill="none" xmlns="http://www.w3.org/2000/svg">
<g filter="url(#filter0_di_7262_66159)">
<path d="M-339.074 0.602437L274.5 0.602384L258.353 0.8658L252.482 0.865801L251.014 0.865801L248.078 0.865801L242.207 1.03044L239.271 1.12922L233.399 1.39263L227.528 1.65605L218.721 2.18288L206.978 3.17069L198.17 4.02679L185.693 5.60728L183.492 5.87069L182.024 6.13411L180.556 6.39752L177.62 6.92435L174.684 7.58289L170.281 8.50484L164.868 9.67375L161.106 10.678L146.061 14.6951L115.969 22.7293L85.1437 30.8951L66.0613 35.6366L52.8504 38.2708L41.1074 39.8512L27.8964 41.1683L14.6856 42.222L0.00674809 43.0122L-14.6722 43.5391L-29.3512 43.8025L-339.074 43.8025C-486.682 26.1594 -501.492 16.6254 -339.074 0.602437Z" fill="#0E1515"/>
</g>
<defs>
<filter id="filter0_di_7262_66159" x="-459.4" y="0.602386" width="737.9" height="51.2001" filterUnits="userSpaceOnUse" color-interpolation-filters="sRGB">
<feFlood flood-opacity="0" result="BackgroundImageFix"/>
<feColorMatrix in="SourceAlpha" type="matrix" values="0 0 0 0 0 0 0 0 0 0 0 0 0 0 0 0 0 0 127 0" result="hardAlpha"/>
<feOffset dy="4"/>
<feGaussianBlur stdDeviation="2"/>
<feComposite in2="hardAlpha" operator="out"/>
<feColorMatrix type="matrix" values="0 0 0 0 0 0 0 0 0 0 0 0 0 0 0 0 0 0 0.25 0"/>
<feBlend mode="normal" in2="BackgroundImageFix" result="effect1_dropShadow_7262_66159"/>
<feBlend mode="normal" in="SourceGraphic" in2="effect1_dropShadow_7262_66159" result="shape"/>
<feColorMatrix in="SourceAlpha" type="matrix" values="0 0 0 0 0 0 0 0 0 0 0 0 0 0 0 0 0 0 127 0" result="hardAlpha"/>
<feOffset dy="2"/>
<feGaussianBlur stdDeviation="15.5"/>
<feComposite in2="hardAlpha" operator="arithmetic" k2="-1" k3="1"/>
<feColorMatrix type="matrix" values="0 0 0 0 0 0 0 0 0 0 0 0 0 0 0 0 0 0 1 0"/>
<feBlend mode="normal" in2="shape" result="effect2_innerShadow_7262_66159"/>
</filter>
</defs>
</svg>
