<svg width="232" height="18" viewBox="0 0 232 18" fill="none" xmlns="http://www.w3.org/2000/svg">
<mask id="path-1-inside-1_7080_71031" fill="white">
<path fill-rule="evenodd" clip-rule="evenodd" d="M197.791 0.183838C199.552 0.20103 200.975 1.63438 200.975 3.40003L200.975 14.6059C200.975 16.3823 199.535 17.8223 197.759 17.8223L0.735845 17.8223C0.746892 17.8224 0.75797 17.8225 0.769048 17.8225L228.05 17.8225C229.826 17.8225 231.266 16.3825 231.266 14.6061L231.266 3.40019C231.266 1.62385 229.826 0.183838 228.05 0.183838L197.791 0.183838Z"/>
</mask>
<path fill-rule="evenodd" clip-rule="evenodd" d="M197.791 0.183838C199.552 0.20103 200.975 1.63438 200.975 3.40003L200.975 14.6059C200.975 16.3823 199.535 17.8223 197.759 17.8223L0.735845 17.8223C0.746892 17.8224 0.75797 17.8225 0.769048 17.8225L228.05 17.8225C229.826 17.8225 231.266 16.3825 231.266 14.6061L231.266 3.40019C231.266 1.62385 229.826 0.183838 228.05 0.183838L197.791 0.183838Z" fill="#434F21" fill-opacity="0.72"/>
<path d="M200.975 3.40003L200.855 3.40003L200.975 3.40003ZM197.791 0.183838L197.79 0.303931L197.791 0.0637389L197.791 0.183838ZM200.975 14.6059L201.096 14.6059L200.975 14.6059ZM0.735845 17.8223L0.734625 17.9424L0.735845 17.7022L0.735845 17.8223ZM231.266 14.6061L231.146 14.6061L231.266 14.6061ZM231.266 3.40019L231.386 3.40019L231.266 3.40019ZM200.855 3.40003C200.855 1.70032 199.485 0.320482 197.79 0.303931L197.792 0.0637446C199.619 0.0815793 201.095 1.56845 201.095 3.40003L200.855 3.40003ZM200.855 14.6059L200.855 3.40003L201.095 3.40003L201.096 14.6059L200.855 14.6059ZM197.759 17.7022C199.469 17.7022 200.855 16.316 200.855 14.6059L201.096 14.6059C201.096 16.4486 199.602 17.9424 197.759 17.9424L197.759 17.7022ZM0.735845 17.7022L197.759 17.7022L197.759 17.9424L0.735845 17.9424L0.735845 17.7022ZM0.737065 17.7022C0.747701 17.7023 0.758367 17.7024 0.769048 17.7024L0.769048 17.9426C0.757574 17.9426 0.746084 17.9425 0.734625 17.9424L0.737065 17.7022ZM0.769048 17.7024L228.05 17.7024L228.05 17.9426L0.769048 17.9426L0.769048 17.7024ZM228.05 17.7024C229.76 17.7024 231.146 16.3161 231.146 14.6061L231.386 14.6061C231.386 16.4488 229.893 17.9426 228.05 17.9426L228.05 17.7024ZM231.146 14.6061L231.146 3.40019L231.386 3.40019L231.386 14.6061L231.146 14.6061ZM231.146 3.40019C231.146 1.69018 229.76 0.303937 228.05 0.303937L228.05 0.0637388C229.893 0.0637388 231.386 1.55752 231.386 3.40019L231.146 3.40019ZM228.05 0.303937L197.791 0.303937L197.791 0.0637389L228.05 0.0637388L228.05 0.303937Z" fill="#00FFB2" mask="url(#path-1-inside-1_7080_71031)"/>
</svg>
