<svg width="231" height="18" viewBox="0 0 231 18" fill="none" xmlns="http://www.w3.org/2000/svg">
<mask id="path-1-inside-1_7080_71028" fill="white">
<path fill-rule="evenodd" clip-rule="evenodd" d="M33.7185 17.8237C31.9534 17.8106 30.5265 16.3757 30.5265 14.6075L30.5265 3.40157C30.5265 1.62523 31.9665 0.185219 33.7429 0.185219L230.763 0.185219C230.755 0.185156 230.746 0.185125 230.738 0.185125L3.45691 0.185125C1.68057 0.185125 0.240555 1.62513 0.240555 3.40147L0.240555 14.6074C0.240555 16.3837 1.68056 17.8237 3.4569 17.8237L33.7185 17.8237Z"/>
</mask>
<path fill-rule="evenodd" clip-rule="evenodd" d="M33.7185 17.8237C31.9534 17.8106 30.5265 16.3757 30.5265 14.6075L30.5265 3.40157C30.5265 1.62523 31.9665 0.185219 33.7429 0.185219L230.763 0.185219C230.755 0.185156 230.746 0.185125 230.738 0.185125L3.45691 0.185125C1.68057 0.185125 0.240555 1.62513 0.240555 3.40147L0.240555 14.6074C0.240555 16.3837 1.68056 17.8237 3.4569 17.8237L33.7185 17.8237Z" fill="#434F21" fill-opacity="0.72"/>
<path d="M33.7185 17.8237L33.7194 17.7036L33.7185 17.9438V17.8237ZM230.763 0.185219L230.764 0.0651226L230.763 0.305319V0.185219ZM30.6466 14.6075C30.6466 16.3097 32.0202 17.691 33.7194 17.7036L33.7176 17.9438C31.8866 17.9302 30.4064 16.4417 30.4064 14.6075H30.6466ZM30.6466 3.40157L30.6466 14.6075H30.4064L30.4064 3.40157H30.6466ZM33.7429 0.305319C32.0329 0.305319 30.6466 1.69156 30.6466 3.40157H30.4064C30.4064 1.5589 31.9002 0.0651188 33.7429 0.0651188V0.305319ZM230.763 0.305319L33.7429 0.305319V0.0651188L230.763 0.0651188V0.305319ZM230.762 0.305315C230.754 0.305254 230.746 0.305225 230.738 0.305225V0.0650253C230.747 0.0650253 230.755 0.0650578 230.764 0.0651226L230.762 0.305315ZM230.738 0.305225L3.45691 0.305225V0.0650253L230.738 0.0650253V0.305225ZM3.45691 0.305225C1.7469 0.305225 0.360654 1.69146 0.360654 3.40147H0.120456C0.120456 1.5588 1.61424 0.0650253 3.45691 0.0650253V0.305225ZM0.360654 3.40147L0.360654 14.6074H0.120456L0.120456 3.40147H0.360654ZM0.360654 14.6074C0.360654 16.3174 1.74689 17.7036 3.4569 17.7036V17.9438C1.61423 17.9438 0.120456 16.4501 0.120456 14.6074H0.360654ZM3.4569 17.7036L33.7185 17.7036V17.9438L3.4569 17.9438V17.7036Z" fill="#00FFB2" mask="url(#path-1-inside-1_7080_71028)"/>
</svg>
