<?xml version="1.0" encoding="UTF-8"?>
<svg width="800px" height="800px" viewBox="0 0 24 24" version="1.1" xmlns="http://www.w3.org/2000/svg">
    <g stroke="none" stroke-width="1" fill="none" fill-rule="evenodd">
        <path d="M12,2 C17.5228475,2 22,6.4771525 22,12 C22,17.5228475 17.5228475,22 12,22 C6.4771525,22 2,17.5228475 2,12 C2,6.4771525 6.4771525,2 12,2 Z M12,4 C7.581722,4 4,7.581722 4,12 C4,16.418278 7.581722,20 12,20 C16.418278,20 20,16.418278 20,12 C20,7.581722 16.418278,4 12,4 Z" fill="#A855F7" fill-rule="nonzero"/>
        <path d="M8.5,9 L15.5,9 C16.3284271,9 17,9.67157288 17,10.5 L17,13.5 C17,14.3284271 16.3284271,15 15.5,15 L8.5,15 C7.67157288,15 7,14.3284271 7,13.5 L7,10.5 C7,9.67157288 7.67157288,9 8.5,9 Z M10,11 L9,11 L9,13 L10,13 L10,11 Z M13,11 L11,11 L11,13 L13,13 L13,11 Z M15,11 L14,11 L14,13 L15,13 L15,11 Z" fill="#A855F7" fill-rule="nonzero"/>
    </g>
</svg>
