<?xml version="1.0" encoding="UTF-8"?>
<svg width="800px" height="800px" viewBox="0 0 24 24" version="1.1" xmlns="http://www.w3.org/2000/svg">
    <g stroke="none" stroke-width="1" fill="none" fill-rule="evenodd">
        <path d="M19.2071068,4.79289322 C19.5976311,5.18341751 19.5976311,5.81658249 19.2071068,6.20710678 L6.20710678,19.2071068 C5.81658249,19.5976311 5.18341751,19.5976311 4.79289322,19.2071068 C4.40236893,18.8165825 4.40236893,18.1834175 4.79289322,17.7928932 L17.7928932,4.79289322 C18.1834175,4.40236893 18.8165825,4.40236893 19.2071068,4.79289322 Z" fill="#A855F7" fill-rule="nonzero"/>
        <path d="M12,2 C13.1045695,2 14,2.8954305 14,4 C14,5.1045695 13.1045695,6 12,6 C10.8954305,6 10,5.1045695 10,4 C10,2.8954305 10.8954305,2 12,2 Z" fill="#A855F7" fill-rule="nonzero"/>
        <path d="M19,10 C20.1045695,10 21,10.8954305 21,12 C21,13.1045695 20.1045695,14 19,14 C17.8954305,14 17,13.1045695 17,12 C17,10.8954305 17.8954305,10 19,10 Z" fill="#A855F7" fill-rule="nonzero"/>
        <path d="M5,18 C6.1045695,18 7,18.8954305 7,20 C7,21.1045695 6.1045695,22 5,22 C3.8954305,22 3,21.1045695 3,20 C3,18.8954305 3.8954305,18 5,18 Z" fill="#A855F7" fill-rule="nonzero"/>
    </g>
</svg>
