<?xml version="1.0" encoding="UTF-8"?>
<svg width="800px" height="800px" viewBox="0 0 24 24" version="1.1" xmlns="http://www.w3.org/2000/svg">
    <g stroke="none" stroke-width="1" fill="none" fill-rule="evenodd">
        <path d="M12,2 C17.5228475,2 22,6.4771525 22,12 C22,17.5228475 17.5228475,22 12,22 C6.4771525,22 2,17.5228475 2,12 C2,6.4771525 6.4771525,2 12,2 Z M12,4 C7.581722,4 4,7.581722 4,12 C4,16.418278 7.581722,20 12,20 C16.418278,20 20,16.418278 20,12 C20,7.581722 16.418278,4 12,4 Z" fill="#A855F7" fill-rule="nonzero"/>
        <path d="M15.8571429,9.42857143 L15.8571429,14.5714286 C15.8571429,15.9142857 14.7714286,17 13.4285714,17 C12.0857143,17 11,15.9142857 11,14.5714286 C11,13.2285714 12.0857143,12.1428571 13.4285714,12.1428571 C13.7428571,12.1428571 14.0571429,12.2 14.2857143,12.3142857 L14.2857143,10.7142857 L11.5714286,11.2857143 L11.5714286,14.5714286 C11.5714286,15.9142857 10.4857143,17 9.14285714,17 C7.8,17 6.71428571,15.9142857 6.71428571,14.5714286 C6.71428571,13.2285714 7.8,12.1428571 9.14285714,12.1428571 C9.45714286,12.1428571 9.77142857,12.2 10,12.3142857 L10,9.42857143 C10,8.92857143 10.3714286,8.5 10.8571429,8.42857143 L14.7142857,7.57142857 C15.3714286,7.45714286 15.8571429,7.97142857 15.8571429,8.62857143 L15.8571429,9.42857143 Z" fill="#A855F7" fill-rule="nonzero"/>
    </g>
</svg>
